<svg id="Calque_1" data-name="Calque 1" xmlns="http://www.w3.org/2000/svg" viewBox="0 0 250 250"><defs><style>.cls-1{fill:none;stroke:#000;stroke-miterlimit:10;stroke-width:2px;}</style></defs><polyline class="cls-1" points="187.4 117.8 187.4 60.55 40.13 60.55 40.13 152.59"/><line class="cls-1" x1="164.37" y1="152.59" x2="40.13" y2="152.59"/><polyline class="cls-1" points="40.13 152.59 40.13 171 99.96 171"/><line class="cls-1" x1="127.57" y1="171" x2="164.37" y2="171"/><line class="cls-1" x1="127.57" y1="171" x2="127.57" y2="189.41"/><line class="cls-1" x1="99.96" y1="171" x2="99.96" y2="189.41"/><line class="cls-1" x1="127.57" y1="171" x2="99.96" y2="171"/><line class="cls-1" x1="86.15" y1="189.41" x2="99.96" y2="189.41"/><line class="cls-1" x1="99.96" y1="189.41" x2="113.76" y2="189.41"/><line class="cls-1" x1="141.38" y1="189.41" x2="127.57" y2="189.41"/><line class="cls-1" x1="127.57" y1="189.41" x2="113.76" y2="189.41"/><line class="cls-1" x1="164.37" y1="171" x2="164.37" y2="178.12"/><line class="cls-1" x1="164.37" y1="152.59" x2="164.37" y2="171"/><polyline class="cls-1" points="187.4 117.8 164.37 117.8 164.37 123.47"/><line class="cls-1" x1="164.37" y1="152.59" x2="164.37" y2="123.47"/><line class="cls-1" x1="210.42" y1="178.12" x2="210.42" y2="123.47"/><polyline class="cls-1" points="187.4 117.8 210.42 117.8 210.42 123.47"/><line class="cls-1" x1="187.4" y1="123.47" x2="164.37" y2="123.47"/><line class="cls-1" x1="210.42" y1="123.47" x2="187.4" y2="123.47"/><line class="cls-1" x1="164.37" y1="178.12" x2="210.42" y2="178.12"/><polyline class="cls-1" points="164.37 178.12 164.37 189.45 210.42 189.45 210.42 178.12"/><line class="cls-1" x1="191.64" y1="183.79" x2="183.15" y2="183.79"/></svg>