<svg id="Calque_1" data-name="Calque 1" xmlns="http://www.w3.org/2000/svg" viewBox="0 0 250 250"><defs><style>.cls-1,.cls-4{fill:none;}.cls-1{stroke:#222221;stroke-miterlimit:10;}.cls-1,.cls-3,.cls-4{stroke-width:2px;}.cls-2{fill:#222221;}.cls-3{fill:#fff;}.cls-3,.cls-4{stroke:#31344a;stroke-linecap:round;stroke-linejoin:round;}</style></defs><rect class="cls-1" x="26.34" y="60.4" width="182.85" height="129.07" rx="21.51"/><line class="cls-1" x1="26.98" y1="97.54" x2="209.19" y2="97.54"/><path class="cls-2" d="M205,159.06H171.26v-1.81H205Zm-46.42,0H124.84v-1.81H158.6Zm-46.42,0H78.43v-1.81h33.75Zm-46.41,0H32v-1.81H65.77Z"/><line class="cls-1" x1="26.98" y1="88.65" x2="209.19" y2="88.65"/><rect class="cls-2" x="32.13" y="126.07" width="29.42" height="21.99" rx="4"/><rect class="cls-3" x="162.11" y="124.25" width="61.99" height="51.81" rx="10.04"/><path class="cls-4" d="M177.69,124.25v-5.09a15.42,15.42,0,0,1,15.42-15.42h0a15.42,15.42,0,0,1,15.42,15.42v5.09"/><line class="cls-4" x1="193.11" y1="143.86" x2="193.11" y2="155.49"/></svg>