<svg id="Calque_1" data-name="Calque 1" xmlns="http://www.w3.org/2000/svg" viewBox="0 0 250 250"><defs><style>.cls-1,.cls-2{fill:none;stroke-linecap:round;stroke-linejoin:round;}.cls-1{stroke:#222221;}.cls-1,.cls-2,.cls-3{stroke-width:2px;}.cls-2{stroke:#000;}.cls-3{fill:#fff;stroke:#272525;stroke-miterlimit:10;}</style></defs><path class="cls-1" d="M194.67,106.15v66.26a17.45,17.45,0,0,1-17.18,17.71H99a17.45,17.45,0,0,1-17.18-17.71V106.15"/><polyline class="cls-1" points="60.91 95.66 138.22 30.74 215.54 95.66"/><circle class="cls-2" cx="137.78" cy="134.4" r="21.98"/><path class="cls-2" d="M176.51,189.88h0A33.49,33.49,0,0,0,143,156.38H132.55a33.5,33.5,0,0,0-33.5,33.5h0"/><path class="cls-3" d="M66,173.66l.13.05a2.09,2.09,0,0,0,.65.13,2.15,2.15,0,0,0,.66-.13l.13-.05.11,0,30.6-14.42a1.89,1.89,0,0,0,1-1.65V125.22s0-.07,0-.11a.68.68,0,0,0,0-.14,1.81,1.81,0,0,0-.18-.6,0,0,0,0,0,0,0h0a1.88,1.88,0,0,0-.42-.51l-.12-.1-.11-.09L67.62,111.4a1.87,1.87,0,0,0-2,0l-31,12.23-.12.1-.11.1a1.81,1.81,0,0,0-.41.51h0l0,.05a1.67,1.67,0,0,0-.16.58.77.77,0,0,0,0,.15s0,.06,0,.09v32.32a1.89,1.89,0,0,0,1,1.66l31.23,14.42Z"/><polyline class="cls-3" points="33.89 124.4 66.92 138.51 99.06 124.33"/><line class="cls-3" x1="66.87" y1="172.51" x2="66.87" y2="139.35"/><line class="cls-3" x1="50.4" y1="131.33" x2="81.49" y2="116.74"/><ellipse class="cls-3" cx="48.16" cy="142.9" rx="1.57" ry="7.85" transform="translate(-102.38 134.02) rotate(-68)"/></svg>