<?xml version="1.0" encoding="utf-8"?>
<!-- Generator: Adobe Illustrator 25.3.0, SVG Export Plug-In . SVG Version: 6.00 Build 0)  -->
<svg version="1.1" id="Calque_1" xmlns="http://www.w3.org/2000/svg" xmlns:xlink="http://www.w3.org/1999/xlink" x="0px" y="0px"
	 viewBox="0 0 250 250" style="enable-background:new 0 0 250 250;" xml:space="preserve">
<style type="text/css">
	.st0{fill:none;stroke:#222221;stroke-width:2.29;stroke-linecap:round;stroke-linejoin:round;}
	.st1{enable-background:new    ;}
</style>
<path class="st0" d="M178.7,65.9c-11.5-12.1-26.7-19.9-43.2-22.1l0,0c-40.2-5.5-77.2,22.6-82.7,62.8c0,0,0,0,0,0l0,0
	c-5.5,40.2,22.6,77.2,62.8,82.7c0,0,0,0,0,0l0,0c40.2,5.5,77.2-22.6,82.7-62.8c0,0,0,0,0,0l0,0c1.4-10.5,0.6-21.2-2.5-31.3"/>
<polyline class="st0" points="143.2,73.4 181.9,69.3 177.8,30.6 "/>
<g class="st1">
	<path d="M106.2,106c0,2.6-0.8,4.9-2.4,6.7c-1.6,1.8-3.8,3.1-6.7,3.8v0.2c3.4,0.4,6,1.5,7.7,3.1c1.7,1.6,2.6,3.9,2.6,6.6
		c0,4.1-1.5,7.2-4.4,9.5c-2.9,2.3-7.1,3.4-12.6,3.4c-4.6,0-8.6-0.8-12.2-2.3v-7.6c1.6,0.8,3.4,1.5,5.4,2s3.9,0.8,5.8,0.8
		c2.9,0,5.1-0.5,6.5-1.5c1.4-1,2.1-2.6,2.1-4.8c0-2-0.8-3.4-2.4-4.2c-1.6-0.8-4.2-1.2-7.7-1.2h-3.2v-6.8H88c3.3,0,5.7-0.4,7.2-1.3
		c1.5-0.9,2.3-2.3,2.3-4.4c0-3.2-2-4.8-6-4.8c-1.4,0-2.8,0.2-4.2,0.7c-1.4,0.5-3,1.3-4.8,2.4l-4.1-6.1C82.1,97.3,86.7,96,92,96
		c4.4,0,7.8,0.9,10.3,2.7C104.9,100.4,106.2,102.8,106.2,106z"/>
	<path d="M141.3,117.6c0,7.4-1.2,12.8-3.6,16.3c-2.4,3.5-6.1,5.3-11.1,5.3c-4.9,0-8.5-1.8-11-5.5c-2.5-3.7-3.7-9-3.7-16.2
		c0-7.4,1.2-12.9,3.6-16.4c2.4-3.5,6.1-5.3,11.1-5.3c4.9,0,8.5,1.8,11,5.5S141.3,110.5,141.3,117.6z M120.7,117.6
		c0,5.2,0.4,8.9,1.3,11.1s2.4,3.4,4.5,3.4c2.1,0,3.6-1.1,4.5-3.4c0.9-2.3,1.4-6,1.4-11.1c0-5.2-0.5-8.9-1.4-11.1
		c-0.9-2.3-2.4-3.4-4.5-3.4c-2.1,0-3.6,1.1-4.5,3.4C121.1,108.7,120.7,112.5,120.7,117.6z"/>
	<path d="M160.7,152.9c-2.2,0-4.2-0.2-5.8-0.7v-6.9c1.3,0.4,2.7,0.5,4.1,0.5c1.5,0,2.6-0.4,3.2-1.2c0.7-0.8,1-2,1-3.7v-34.4h8.8
		v35.7c0,3.4-1,6.1-3,7.9C167.2,152,164.4,152.9,160.7,152.9z M162.9,98.1c0-2.9,1.6-4.3,4.8-4.3c3.2,0,4.8,1.4,4.8,4.3
		c0,1.4-0.4,2.4-1.2,3.2s-2,1.1-3.6,1.1C164.5,102.5,162.9,101,162.9,98.1z"/>
</g>
</svg>
