<?xml version="1.0" encoding="utf-8"?>
<!-- Generator: Adobe Illustrator 23.0.6, SVG Export Plug-In . SVG Version: 6.00 Build 0)  -->
<svg version="1.1" id="Calque_1" xmlns="http://www.w3.org/2000/svg" xmlns:xlink="http://www.w3.org/1999/xlink" x="0px" y="0px"
	 viewBox="0 0 250 250" style="enable-background:new 0 0 250 250;" xml:space="preserve">
<style type="text/css">
	.st0{fill:none;stroke:#000000;stroke-width:1.7;stroke-miterlimit:10;}
</style>
<g>
	<g>
		<polyline class="st0" points="170.1,74.1 170.1,60.4 60.9,60.4 60.9,169.6 76.7,169.6 		"/>
		<line class="st0" x1="170.1" y1="169.6" x2="99.6" y2="169.6"/>
		<line class="st0" x1="170.1" y1="169.6" x2="185.2" y2="169.6"/>
		<polyline class="st0" points="208.2,169.6 224.7,169.6 224.7,146.2 224.7,115 		"/>
		<polyline class="st0" points="170.1,74.1 197.4,74.1 224.7,115 224.7,128 		"/>
		<line class="st0" x1="170.1" y1="74.1" x2="170.1" y2="115"/>
		<line class="st0" x1="170.1" y1="115" x2="170.1" y2="169.6"/>
		<line class="st0" x1="224.7" y1="115" x2="170.1" y2="115"/>
		<path class="st0" d="M208.2,169.6c1.1,2,1.9,4.2,1.9,6.7c0,7.4-6,13.3-13.3,13.3s-13.3-6-13.3-13.3c0-2.4,0.7-4.7,1.9-6.7"/>
		<path class="st0" d="M208.2,169.6c-2.3-4-6.6-6.7-11.5-6.7c-4.9,0-9.2,2.7-11.5,6.7"/>
		<path class="st0" d="M76.7,169.6c-1.1,2-1.8,4.2-1.8,6.7c0,7.4,6,13.3,13.3,13.3s13.3-6,13.3-13.3c0-2.4-0.7-4.7-1.8-6.7"/>
		<path class="st0" d="M76.7,169.6c2.3-4,6.6-6.7,11.5-6.7c4.9,0,9.2,2.7,11.5,6.7"/>
		<g>
			<line class="st0" x1="31.8" y1="150.5" x2="51.3" y2="150.5"/>
			<line class="st0" x1="25.3" y1="160.1" x2="51.3" y2="160.1"/>
			<line class="st0" x1="31.8" y1="169.6" x2="51.3" y2="169.6"/>
		</g>
	</g>
</g>
</svg>
