<?xml version="1.0" encoding="utf-8"?>
<!-- Generator: Adobe Illustrator 23.0.6, SVG Export Plug-In . SVG Version: 6.00 Build 0)  -->
<svg version="1.1" id="Calque_1" xmlns="http://www.w3.org/2000/svg" xmlns:xlink="http://www.w3.org/1999/xlink" x="0px" y="0px"
	 viewBox="0 0 250 250" style="enable-background:new 0 0 250 250;" xml:space="preserve">
<style type="text/css">
	.st0{fill:none;stroke:#000000;stroke-width:1.7;stroke-miterlimit:10;}
</style>
<g>
	<g>
		<g>
			<g>
				<g>
					<g>
						<g>
							<path class="st0" d="M170.3,105.9c0,25-45.3,77.9-45.3,77.9s-45.3-52.9-45.3-77.9c0-25,20.3-45.3,45.3-45.3
								C150,60.6,170.3,80.9,170.3,105.9z"/>
						</g>
						<g>
							<path class="st0" d="M138.3,105.9c0,7.3-5.9,13.3-13.3,13.3c-7.4,0-13.3-5.9-13.3-13.3c0-7.3,5.9-13.3,13.3-13.3
								C132.3,92.6,138.3,98.6,138.3,105.9z"/>
						</g>
					</g>
				</g>
			</g>
		</g>
		<g>
			<g>
				<path class="st0" d="M113.9,178.3c-19.6,0.6-34.1,2.8-34.1,5.5c0,3.1,20.3,5.7,45.3,5.7"/>
				<path class="st0" d="M125,189.4c25,0,45.3-2.5,45.3-5.7c0-2.6-14.5-4.9-34.1-5.5"/>
			</g>
		</g>
	</g>
</g>
</svg>
