<?xml version="1.0" encoding="utf-8"?>
<!-- Generator: Adobe Illustrator 23.0.6, SVG Export Plug-In . SVG Version: 6.00 Build 0)  -->
<svg version="1.1" id="Calque_1" xmlns="http://www.w3.org/2000/svg" xmlns:xlink="http://www.w3.org/1999/xlink" x="0px" y="0px"
	 viewBox="0 0 250 250" style="enable-background:new 0 0 250 250;" xml:space="preserve">
<style type="text/css">
	.st0{fill:none;stroke:#000000;stroke-width:1.7;stroke-miterlimit:10;}
</style>
<g>
	<g>
		<line class="st0" x1="187.8" y1="123.6" x2="187.8" y2="139.3"/>
		<polyline class="st0" points="46.5,80.6 46.5,60.5 187.8,60.5 187.8,80.6 		"/>
		<polyline class="st0" points="46.5,123.8 46.5,189.4 187.8,189.4 187.8,174.8 		"/>
		<polyline class="st0" points="46.5,80.6 33.4,99.2 33.4,106.3 		"/>
		<polyline class="st0" points="201.3,106.3 201.3,99.2 187.8,80.6 		"/>
		<line class="st0" x1="46.5" y1="80.6" x2="187.8" y2="80.6"/>
		<line class="st0" x1="46.5" y1="106.3" x2="52.1" y2="106.3"/>
		<line class="st0" x1="46.5" y1="106.3" x2="33.4" y2="106.3"/>
		<path class="st0" d="M46.5,123.8c-1.1,0.5-2.4,0.8-3.7,0.8c-5.2,0-9.3-4.2-9.3-9.3v-3.6"/>
		<path class="st0" d="M52.1,115.3c0,3.8-2.3,7.1-5.6,8.6"/>
		<line class="st0" x1="33.4" y1="106.3" x2="33.4" y2="111.7"/>
		<path class="st0" d="M70.7,115.3c0,5.2-4.2,9.3-9.3,9.3c-5.2,0-9.3-4.2-9.3-9.3"/>
		<line class="st0" x1="52.1" y1="106.3" x2="70.7" y2="106.3"/>
		<line class="st0" x1="52.1" y1="115.3" x2="52.1" y2="111.7"/>
		<line class="st0" x1="52.1" y1="106.3" x2="52.1" y2="111.7"/>
		<line class="st0" x1="70.7" y1="106.3" x2="89.4" y2="106.3"/>
		<path class="st0" d="M89.4,115.3c0,5.2-4.2,9.3-9.3,9.3s-9.3-4.2-9.3-9.3"/>
		<line class="st0" x1="70.7" y1="106.3" x2="70.7" y2="111.7"/>
		<line class="st0" x1="70.7" y1="115.3" x2="70.7" y2="111.7"/>
		<path class="st0" d="M108,115.3c0,5.2-4.2,9.3-9.3,9.3s-9.3-4.2-9.3-9.3"/>
		<line class="st0" x1="89.4" y1="106.3" x2="108" y2="106.3"/>
		<line class="st0" x1="89.4" y1="115.3" x2="89.4" y2="111.8"/>
		<line class="st0" x1="89.4" y1="106.3" x2="89.4" y2="111.8"/>
		<path class="st0" d="M126.7,115.3c0,5.2-4.2,9.3-9.3,9.3c-5.2,0-9.3-4.2-9.3-9.3"/>
		<line class="st0" x1="108" y1="106.3" x2="126.7" y2="106.3"/>
		<line class="st0" x1="108" y1="106.3" x2="108" y2="111.8"/>
		<line class="st0" x1="108" y1="115.3" x2="108" y2="111.8"/>
		<path class="st0" d="M145.3,115.3c0,5.2-4.2,9.3-9.3,9.3c-5.1,0-9.3-4.2-9.3-9.3"/>
		<line class="st0" x1="126.7" y1="106.3" x2="145.3" y2="106.3"/>
		<line class="st0" x1="126.7" y1="115.3" x2="126.7" y2="111.8"/>
		<line class="st0" x1="126.7" y1="106.3" x2="126.7" y2="111.8"/>
		<path class="st0" d="M145.3,115.3c0,5.2,4.2,9.3,9.3,9.3c5.1,0,9.3-4.2,9.3-9.3"/>
		<line class="st0" x1="145.3" y1="106.3" x2="164" y2="106.3"/>
		<line class="st0" x1="145.3" y1="115.3" x2="145.3" y2="111.8"/>
		<line class="st0" x1="145.3" y1="111.8" x2="145.3" y2="106.3"/>
		<path class="st0" d="M182.6,115.3c0,5.2-4.2,9.3-9.3,9.3c-5.1,0-9.3-4.2-9.3-9.3"/>
		<line class="st0" x1="164" y1="106.3" x2="182.6" y2="106.3"/>
		<line class="st0" x1="164" y1="106.3" x2="164" y2="111.9"/>
		<line class="st0" x1="164" y1="115.3" x2="164" y2="111.9"/>
		<path class="st0" d="M182.6,115.3c0,3.6,2.1,6.8,5.1,8.3"/>
		<path class="st0" d="M187.8,123.6c1.3,0.6,2.7,1,4.2,1c5.1,0,9.3-4.2,9.3-9.3v-3.4"/>
		<line class="st0" x1="187.8" y1="106.3" x2="201.3" y2="106.3"/>
		<line class="st0" x1="182.6" y1="106.3" x2="187.8" y2="106.3"/>
		<line class="st0" x1="201.3" y1="106.3" x2="201.3" y2="111.9"/>
		<line class="st0" x1="182.6" y1="115.3" x2="182.6" y2="111.9"/>
		<line class="st0" x1="182.6" y1="111.9" x2="182.6" y2="106.3"/>
		<polyline class="st0" points="67,138.6 61,138.6 61,174.1 79.8,174.1 		"/>
		<polyline class="st0" points="79.8,174.1 98.5,174.1 98.5,138.6 92.5,138.6 		"/>
		<line class="st0" x1="79.8" y1="143.6" x2="79.8" y2="174.1"/>
		<polyline class="st0" points="92.5,138.6 89.2,133.9 89.2,133.9 		"/>
		<line class="st0" x1="67" y1="138.6" x2="70.3" y2="133.9"/>
		<polyline class="st0" points="67,138.6 76.4,148.1 79.8,143.4 		"/>
		<polyline class="st0" points="89.2,133.9 70.3,133.9 68.7,136.3 		"/>
		<polyline class="st0" points="79.8,143.4 83.1,148.1 92.5,138.6 		"/>
		<line class="st0" x1="75" y1="138.6" x2="79.8" y2="143.4"/>
		<line class="st0" x1="75" y1="138.6" x2="70.3" y2="133.9"/>
		<line class="st0" x1="89.2" y1="133.9" x2="84.5" y2="138.6"/>
		<line class="st0" x1="79.8" y1="143.4" x2="84.5" y2="138.6"/>
		<polyline class="st0" points="187.8,139.3 158.9,139.3 158.9,144.2 		"/>
		<polyline class="st0" points="158.9,154 158.9,174.8 187.8,174.8 		"/>
		<polyline class="st0" points="216.6,144.2 216.6,139.3 187.8,139.3 		"/>
		<polyline class="st0" points="187.8,174.8 216.6,174.8 216.6,154 		"/>
		<line class="st0" x1="158.9" y1="144.2" x2="187.8" y2="144.2"/>
		<line class="st0" x1="187.8" y1="154" x2="216.6" y2="154"/>
		<line class="st0" x1="216.6" y1="144.2" x2="187.8" y2="144.2"/>
		<line class="st0" x1="158.9" y1="154" x2="187.8" y2="154"/>
		<line class="st0" x1="158.9" y1="154" x2="158.9" y2="144.2"/>
		<line class="st0" x1="216.6" y1="154" x2="216.6" y2="144.2"/>
		<line class="st0" x1="148.8" y1="157" x2="138.4" y2="157"/>
		<line class="st0" x1="145.2" y1="153.4" x2="148.8" y2="157"/>
		<line class="st0" x1="147.8" y1="156" x2="148.8" y2="157"/>
		<polyline class="st0" points="145.2,160.7 148.8,157 146.5,154.7 		"/>
		<rect x="201.9" y="158.9" class="st0" width="9.8" height="4.9"/>
	</g>
</g>
</svg>
